<?xml version="1.0" encoding="UTF-8"?> <svg xmlns="http://www.w3.org/2000/svg" width="1000" height="500" viewBox="0 0 1000 500" fill="none"> <rect width="1000" height="500" fill="black"></rect> <path d="M300 281.73C307.49 281.73 313.66 278.96 317.57 274.93C318.036 274.469 318.641 274.174 319.291 274.089C319.941 274.004 320.601 274.135 321.17 274.46L334.8 282.29C335.054 282.433 335.274 282.628 335.444 282.864C335.614 283.1 335.731 283.37 335.786 283.656C335.842 283.941 335.834 284.236 335.764 284.518C335.693 284.8 335.563 285.064 335.38 285.29C327.38 295.7 315.1 301.62 299.68 301.62C271.12 301.62 253.1 282.07 253.1 256.74C253.1 231.41 271.29 211.86 298 211.86C323.16 211.86 341 231.75 341 256.74C340.995 259.185 340.804 261.625 340.43 264.04C340.36 264.519 340.119 264.956 339.751 265.271C339.383 265.585 338.914 265.755 338.43 265.75H277.43C277.269 265.749 277.109 265.786 276.965 265.86C276.822 265.933 276.698 266.04 276.605 266.172C276.511 266.304 276.451 266.456 276.429 266.616C276.408 266.776 276.425 266.939 276.48 267.09C279.87 277.35 288.93 281.73 300 281.73ZM317.76 248.73C317.914 248.735 318.067 248.704 318.207 248.639C318.348 248.575 318.471 248.479 318.568 248.359C318.665 248.238 318.732 248.098 318.766 247.947C318.799 247.796 318.797 247.64 318.76 247.49C315.76 236.16 306.85 231.56 297.98 231.56C286.71 231.56 278.89 237.37 276.03 247.48C275.991 247.631 275.988 247.788 276.02 247.94C276.053 248.092 276.12 248.234 276.217 248.356C276.314 248.477 276.438 248.574 276.579 248.639C276.72 248.704 276.875 248.735 277.03 248.73H317.76Z" fill="#006AFF"></path> <path d="M378.1 235.29V272.29C378.1 280.95 383.99 281.59 395.21 281.07C395.481 281.057 395.752 281.099 396.006 281.193C396.26 281.287 396.493 281.433 396.689 281.62C396.886 281.807 397.042 282.032 397.149 282.281C397.255 282.531 397.31 282.799 397.31 283.07V299.07C397.312 299.568 397.129 300.049 396.796 300.418C396.464 300.788 396.005 301.021 395.51 301.07C366.13 303.92 356.17 294.82 356.17 272.32V235.29H343.38C342.849 235.29 342.341 235.08 341.966 234.705C341.591 234.33 341.38 233.821 341.38 233.29V216.29C341.38 215.76 341.591 215.251 341.966 214.876C342.341 214.501 342.849 214.29 343.38 214.29H356.17V199.29C356.17 198.647 356.377 198.02 356.761 197.504C357.144 196.987 357.684 196.607 358.3 196.42L375.52 191.21C375.818 191.12 376.134 191.101 376.441 191.154C376.749 191.207 377.039 191.331 377.29 191.517C377.541 191.703 377.744 191.944 377.885 192.223C378.026 192.501 378.099 192.808 378.1 193.12V214.29H395.31C395.84 214.29 396.349 214.501 396.724 214.876C397.099 215.251 397.31 215.76 397.31 216.29V233.29C397.31 233.821 397.099 234.33 396.724 234.705C396.349 235.08 395.84 235.29 395.31 235.29H378.1Z" fill="#006AFF"></path> <path d="M488.62 216.29V297.29C488.62 297.821 488.409 298.329 488.034 298.705C487.659 299.08 487.15 299.29 486.62 299.29H468.69C468.159 299.29 467.651 299.08 467.276 298.705C466.901 298.329 466.69 297.821 466.69 297.29V289.29C460.57 296.94 451.39 301.7 438.98 301.7C416.37 301.7 397.67 282.15 397.67 256.82C397.67 231.49 416.37 211.86 439 211.86C451.41 211.86 460.59 216.62 466.71 224.27V216.29C466.71 215.76 466.921 215.251 467.296 214.876C467.671 214.501 468.179 214.29 468.71 214.29H486.64C487.167 214.296 487.67 214.509 488.041 214.883C488.412 215.258 488.62 215.763 488.62 216.29ZM466.69 256.79C466.69 242.51 456.69 232.79 443.06 232.79C429.63 232.79 419.6 242.48 419.6 256.79C419.6 271.1 429.6 280.79 443.06 280.79C456.66 280.71 466.69 271.02 466.69 256.74V256.79Z" fill="#006AFF"></path> <path d="M496.25 193.09C496.201 191.258 496.519 189.435 497.186 187.727C497.853 186.02 498.855 184.464 500.134 183.15C501.412 181.837 502.941 180.793 504.629 180.08C506.318 179.367 508.132 179 509.965 179C511.798 179 513.612 179.367 515.301 180.08C516.99 180.793 518.518 181.837 519.797 183.15C521.075 184.464 522.077 186.02 522.744 187.727C523.411 189.435 523.73 191.258 523.68 193.09C523.584 196.664 522.096 200.058 519.535 202.552C516.973 205.045 513.54 206.44 509.965 206.44C506.39 206.44 502.957 205.045 500.395 202.552C497.834 200.058 496.347 196.664 496.25 193.09ZM501 214.29H518.94C519.471 214.29 519.979 214.501 520.354 214.876C520.729 215.251 520.94 215.76 520.94 216.29V297.29C520.94 297.821 520.729 298.33 520.354 298.705C519.979 299.08 519.471 299.29 518.94 299.29H501C500.47 299.29 499.961 299.08 499.586 298.705C499.211 298.33 499 297.821 499 297.29V216.29C499 215.76 499.211 215.251 499.586 214.876C499.961 214.501 500.47 214.29 501 214.29Z" fill="#006AFF"></path> <path d="M533.13 179.29H551.05C551.57 179.29 552.07 179.493 552.443 179.855C552.817 180.217 553.034 180.71 553.05 181.23V297.29C553.034 297.81 552.817 298.304 552.443 298.666C552.07 299.028 551.57 299.231 551.05 299.23H533.13C532.61 299.231 532.11 299.028 531.736 298.666C531.363 298.304 531.145 297.81 531.13 297.29V181.23C531.145 180.71 531.363 180.217 531.736 179.855C532.11 179.493 532.61 179.29 533.13 179.29Z" fill="#006AFF"></path> <path d="M563.25 256.74C563.25 231.41 582.25 211.86 608.13 211.86C624.02 211.86 637.91 219.86 645.2 232.01C645.34 232.238 645.433 232.491 645.474 232.755C645.515 233.019 645.502 233.289 645.437 233.548C645.372 233.807 645.255 234.051 645.094 234.264C644.933 234.477 644.731 234.656 644.5 234.79L629.92 243.29C629.265 243.677 628.487 243.8 627.744 243.635C627.002 243.469 626.35 243.028 625.92 242.4C622.13 236.84 615.56 233.4 607.92 233.4C594.83 233.4 585.14 243.09 585.14 256.69C585.14 270.12 594.83 279.81 607.92 279.81C615.71 279.81 622.31 276.51 626.09 270.96C626.517 270.344 627.159 269.909 627.89 269.743C628.621 269.576 629.388 269.69 630.04 270.06L644.75 278.47C644.985 278.604 645.191 278.784 645.355 279C645.518 279.216 645.636 279.463 645.702 279.725C645.767 279.988 645.779 280.261 645.736 280.529C645.692 280.796 645.595 281.052 645.45 281.28C641.468 287.569 635.944 292.735 629.404 296.288C622.863 299.841 615.523 301.663 608.08 301.58C582.29 301.62 563.25 282.07 563.25 256.74Z" fill="white"></path> <path d="M703.48 214.61V234.85C703.48 235.123 703.425 235.392 703.318 235.642C703.211 235.892 703.053 236.118 702.856 236.305C702.658 236.492 702.425 236.637 702.169 236.731C701.914 236.825 701.642 236.865 701.37 236.85C690.37 236.33 677.64 241.85 677.64 258.61V297.29C677.64 297.821 677.429 298.33 677.054 298.705C676.679 299.08 676.17 299.29 675.64 299.29H657.71C657.18 299.29 656.671 299.08 656.296 298.705C655.921 298.33 655.71 297.821 655.71 297.29V216.29C655.71 215.76 655.921 215.251 656.296 214.876C656.671 214.501 657.18 214.29 657.71 214.29H675.64C676.17 214.29 676.679 214.501 677.054 214.876C677.429 215.251 677.64 215.76 677.64 216.29V228.86C681.77 218.06 691.39 213.2 701.37 212.6C701.643 212.585 701.915 212.626 702.172 212.721C702.428 212.815 702.662 212.961 702.859 213.149C703.057 213.338 703.214 213.564 703.321 213.816C703.428 214.067 703.482 214.337 703.48 214.61Z" fill="white"></path> <path d="M839.82 246.88V297.29C839.82 297.821 839.609 298.329 839.234 298.705C838.859 299.08 838.35 299.29 837.82 299.29H819.89C819.36 299.29 818.851 299.08 818.476 298.705C818.101 298.329 817.89 297.821 817.89 297.29V248.41C817.89 238.41 812.79 232.26 803.61 232.26C793.92 232.26 787.8 238.72 787.8 251.47V297.29C787.8 297.821 787.589 298.329 787.214 298.705C786.839 299.08 786.33 299.29 785.8 299.29H767.87C767.34 299.29 766.831 299.08 766.456 298.705C766.081 298.329 765.87 297.821 765.87 297.29V248.41C765.87 238.41 760.77 232.26 751.59 232.26C742.24 232.26 735.59 238.72 735.59 251.47V297.29C735.59 297.821 735.379 298.329 735.004 298.705C734.629 299.08 734.12 299.29 733.59 299.29H715.68C715.149 299.29 714.641 299.08 714.266 298.705C713.891 298.329 713.68 297.821 713.68 297.29V216.29C713.68 215.76 713.891 215.251 714.266 214.876C714.641 214.501 715.149 214.29 715.68 214.29H733.61C734.14 214.29 734.649 214.501 735.024 214.876C735.399 215.251 735.61 215.76 735.61 216.29V223.29C740.37 216.15 748.36 211.9 759.24 211.9C769.78 211.9 777.6 216.32 782.36 224.14C787.63 216.49 796.13 211.9 807.69 211.9C827.07 211.86 839.82 225.63 839.82 246.88Z" fill="white"></path> <path d="M249.09 211.69H176.57C172.438 211.698 168.478 213.345 165.559 216.27C162.639 219.195 161 223.158 161 227.29V227.29V299.8C161 300.331 161.211 300.84 161.586 301.215C161.961 301.59 162.47 301.8 163 301.8H181.08C181.61 301.8 182.119 301.59 182.494 301.215C182.869 300.84 183.08 300.331 183.08 299.8V260.29C183.078 256.152 181.792 252.117 179.4 248.74L172.07 238.38L232.19 298.49C232.376 298.679 232.598 298.829 232.843 298.932C233.087 299.034 233.35 299.087 233.615 299.087C233.88 299.087 234.143 299.034 234.387 298.932C234.632 298.829 234.854 298.679 235.04 298.49L247.8 285.72C247.989 285.534 248.139 285.312 248.241 285.068C248.344 284.823 248.397 284.561 248.397 284.295C248.397 284.03 248.344 283.768 248.241 283.523C248.139 283.278 247.989 283.056 247.8 282.87L187.74 222.82L198 230.09C201.377 232.482 205.412 233.768 209.55 233.77H249.09C249.62 233.77 250.129 233.56 250.504 233.185C250.879 232.81 251.09 232.301 251.09 231.77V213.69C251.09 213.16 250.879 212.651 250.504 212.276C250.129 211.901 249.62 211.69 249.09 211.69Z" fill="#006AFF"></path> <path d="M249.05 179.29H163C161.895 179.29 161 180.186 161 181.29V199.49C161 200.595 161.895 201.49 163 201.49H249.05C250.155 201.49 251.05 200.595 251.05 199.49V181.29C251.05 180.186 250.155 179.29 249.05 179.29Z" fill="#006AFF"></path> </svg> 